<?xml version="1.0" encoding="UTF-8"?>
<svg id="Layer_2" data-name="Layer 2" xmlns="http://www.w3.org/2000/svg" viewBox="0 0 896.62 227.69">
  <defs>
    <style>
      .cls-1 {
        fill: #fff;
      }
    </style>
  </defs>
  <polygon class="cls-1" points="123.52 38.5 123.52 113.94 0 114.6 0 44.93 123.52 38.5"/>
  <path class="cls-1" d="M67.19,128.93c.29-.47,74.72-.65,95.7-.81,8.17-.06,27.86-.32,28.15.15v41.84l-.49.49h-122.86l-.49-.49v-41.18h0Z"/>
  <path class="cls-1" d="M0,129.1l53.03.16v96.86c-.61.83-1.18.49-1.81.49H.49l-.49-.49v-97.02Z"/>
  <path class="cls-1" d="M137.68,38.34c.09-.32.78-.74,1.16-.82.88-.16,3.21-.28,4.28-.33,12.72-.68,25.48-1.08,38.22-1.64,2.55-.11,5.73-.69,8.22-.7.6,0,1.12-.02,1.48.52v77.42c0,1.02-53.36.66-53.36.66V38.34Z"/>
  <polygon class="cls-1" points="123.52 184.77 123.47 227.23 67.19 226.45 67.19 185.27 67.69 184.77 123.52 184.77"/>
  <path class="cls-1" d="M138.01,227.27v-42.17h52.54c1.43.06,0,41.5.5,42-16.53,1.37-35.7-.1-53.03.16h0Z"/>
  <g>
    <path class="cls-1" d="M376.79,112.97c0,40.08-20.62,65.39-52.85,65.39-18.4,0-32.81-8.32-40.2-22.62h-.59v63.4h-29.18V48.87h28.48v21.56h.59c7.03-14.06,22.5-22.97,40.43-22.97,32.58,0,53.32,25.31,53.32,65.51ZM346.91,112.97c0-24.96-12.66-41.25-31.99-41.25s-31.88,16.64-31.88,41.25,12.77,41.13,31.88,41.13,31.99-16.05,31.99-41.13Z"/>
    <path class="cls-1" d="M378.85,140.27c0-22.85,17.46-35.86,49.69-37.85l33.28-1.99v-9.38c0-13.59-9.14-20.98-24.84-20.98-13.24,0-22.73,6.91-24.73,17.23h-26.95c.7-23.44,22.5-40.2,52.62-40.2,31.99,0,52.73,16.64,52.73,42.07v87.77h-28.01v-20.62h-.7c-7.03,13.71-22.85,22.03-39.84,22.03-25.2,0-43.24-15.35-43.24-38.09h0ZM461.82,129.38v-9.73l-29.3,1.88c-15.94,1.05-24.38,7.15-24.38,17.58s8.91,16.87,22.5,16.87c17.7,0,31.17-11.02,31.17-26.6h0Z"/>
    <path class="cls-1" d="M503.14,48.87h28.01v22.27h.59c7.62-15.59,20.51-23.79,40.2-23.79,28.36,0,44.53,17.93,44.53,47.58v82.03h-29.18v-76.29c0-18.28-8.67-28.59-26.25-28.59s-28.71,12.66-28.71,31.41v73.48h-29.18V48.87h-.01Z"/>
    <path class="cls-1" d="M740.99,138.87c-3.75,23.67-26.48,39.96-56.37,39.96-37.85,0-61.29-25.08-61.29-65.39s23.55-66.33,60.23-66.33,58.59,24.49,58.59,63.28v9.61h-89.65v1.76c0,20.62,13.12,34.34,32.7,34.34,14.06,0,24.96-6.68,28.36-17.23h27.43ZM652.74,100.55h60.7c-.59-18.52-12.54-30.7-29.88-30.7s-29.53,12.42-30.82,30.7Z"/>
    <path class="cls-1" d="M750.67,0h29.18v176.95h-29.18V0Z"/>
    <path class="cls-1" d="M842.96,47.11c29.53,0,50.16,15.94,50.74,39.14h-27.19c-.94-10.78-10.2-17.58-24.14-17.58s-22.5,6.21-22.5,15.59c0,7.15,5.98,12.07,18.63,15l22.5,5.16c25.78,5.98,35.62,15.7,35.62,34.57,0,23.79-22.27,39.84-54.38,39.84s-52.15-15.82-54.02-39.61h28.71c1.76,11.6,11.25,18.05,26.48,18.05s24.14-5.98,24.14-15.47c0-7.5-4.69-11.48-17.46-14.53l-23.2-5.62c-23.44-5.51-35.39-17.58-35.39-35.74,0-23.2,20.62-38.79,51.45-38.79h.01Z"/>
  </g>
</svg>